# xmcd
#
# Track frame offsets: 
#        150
#        12063
#        24568
#        37041
#        49816
#        63777
#        87887
#        103445
#        125343
#        148003
#        160143
#        177262
#        190888
#        204663
#
# Disc length: 2908 seconds
#
# Revision: 0
# Processed by: cddbd v1.5.2PL0 Copyright (c) Steve Scherf et al.
# Submitted via: ExactAudioCopyFreeDBPlugin 1.0
#
DISCID=bf0b5a0e
DTITLE=The Michael Roach Band - Ibetcha
DYEAR=1900
DGENRE=Blues
TTITLE0=I Betcha
TTITLE1=Baby No.No.No
TTITLE2=Over and Over
TTITLE3=People Get Ready
TTITLE4=I Pity The Fool
TTITLE5=Rich Man's War
TTITLE6=Revolution
TTITLE7=SSay The Wrong Thing
TTITLE8=She Said
TTITLE9=Straight Up
TTITLE10=3 Long Years
TTITLE11=Tumblin' Home
TTITLE12=Downtrodden Woman
TTITLE13=Let's Go Let's Go Let's Go
EXTD=
EXTT0=
EXTT1=
EXTT2=
EXTT3=
EXTT4=
EXTT5=
EXTT6=
EXTT7=
EXTT8=
EXTT9=
EXTT10=
EXTT11=
EXTT12=
EXTT13=
PLAYORDER=
